<svg width="1200" height="1500" viewBox="0 0 1200 1500" fill="none" xmlns="http://www.w3.org/2000/svg">
  <rect width="1200" height="1500" fill="#0B0908"/>
  <rect x="76" y="76" width="1048" height="1348" rx="24" fill="url(#bg)"/>
  <rect x="112" y="112" width="976" height="1276" rx="12" stroke="url(#frame)" stroke-width="2"/>
  <path d="M218 216H982V464H218V216Z" fill="url(#mirrorGlow)" fill-opacity="0.9"/>
  <path d="M218 488H982V1276H218V488Z" fill="url(#floor)" fill-opacity="0.85"/>
  <g opacity="0.65">
    <path d="M302 1261L588 812L683 907L413 1261H302Z" fill="#2A211B"/>
    <path d="M791 1260L603 889L708 795L903 1260H791Z" fill="#1B1714"/>
    <path d="M595 862C687.784 862 763 786.784 763 694C763 601.216 687.784 526 595 526C502.216 526 427 601.216 427 694C427 786.784 502.216 862 595 862Z" fill="url(#chair)"/>
  </g>
  <g opacity="0.8">
    <rect x="437" y="260" width="332" height="188" rx="8" fill="url(#mirror)" stroke="url(#frame)" stroke-width="2"/>
    <path d="M471 295H736" stroke="#A88661" stroke-width="3" stroke-linecap="round"/>
    <path d="M471 332H701" stroke="#A88661" stroke-width="3" stroke-linecap="round" opacity="0.55"/>
    <path d="M471 369H664" stroke="#A88661" stroke-width="3" stroke-linecap="round" opacity="0.35"/>
  </g>
  <g opacity="0.75">
    <rect x="850" y="302" width="106" height="196" rx="16" fill="#171310"/>
    <rect x="877" y="330" width="54" height="140" rx="27" fill="url(#clipperBody)"/>
    <rect x="889" y="316" width="31" height="20" rx="5" fill="#D3B185"/>
    <rect x="893" y="474" width="21" height="16" rx="5" fill="#8F6A47"/>
    <path d="M938 360C964.4 382.8 991.667 404.833 1020 426.1" stroke="url(#cord)" stroke-width="4" stroke-linecap="round"/>
  </g>
  <g opacity="0.92">
    <path d="M644 467C699.228 467 744 422.228 744 367C744 311.772 699.228 267 644 267C588.772 267 544 311.772 544 367C544 422.228 588.772 467 644 467Z" fill="#3B2D23"/>
    <path d="M600 436C600 377.726 647.726 330 706 330H731C731 388.274 683.274 436 625 436H600Z" fill="#231A15"/>
    <path d="M673 308C664.722 281.554 637.138 266.768 610.692 275.046C584.246 283.324 569.46 310.908 577.738 337.354C586.016 363.8 613.6 378.586 640.046 370.308C666.492 362.03 681.278 334.446 673 308Z" fill="#2A2019"/>
  </g>
  <g>
    <path d="M520 1236C554.353 1236 582.2 1208.15 582.2 1173.8V875.1H457.8V1173.8C457.8 1208.15 485.647 1236 520 1236Z" fill="url(#apron)"/>
    <path d="M599 1236C633.353 1236 661.2 1208.15 661.2 1173.8V877.1H536.8V1173.8C536.8 1208.15 564.647 1236 599 1236Z" fill="#161211"/>
    <rect x="448" y="632" width="224" height="300" rx="112" fill="#1B1716"/>
    <rect x="470" y="666" width="180" height="248" rx="90" fill="url(#coat)"/>
    <path d="M473 789C543.4 806.2 608.333 806.167 668 789" stroke="#8C6B49" stroke-width="3" stroke-linecap="round" opacity="0.55"/>
    <path d="M476 842C541.172 858.855 603.506 859.524 663 844" stroke="#8C6B49" stroke-width="3" stroke-linecap="round" opacity="0.35"/>
    <rect x="497" y="552" width="126" height="138" rx="63" fill="#765740"/>
    <path d="M493 618C505.8 581.2 529 561.667 562.6 559.4C597.267 557.133 624.733 573 645 607V643H493V618Z" fill="#221A16"/>
    <path d="M506 674C539.333 692.8 573 694.467 607 679V722H506V674Z" fill="#684C37"/>
    <path d="M533 612C576.182 612 611.2 576.982 611.2 533.8V493H454.8V533.8C454.8 576.982 489.818 612 533 612Z" fill="#8A684D"/>
    <path d="M460 489C472.6 426.2 509 393.667 569.2 391.4C631.133 389.133 675.4 420.667 702 486V562H644V514C644 495.222 628.778 480 610 480H575C545.177 480 521 455.823 521 426V402H510C479.072 402 454 427.072 454 458V489H460Z" fill="#241B16"/>
    <path d="M479 582C488.667 609.333 507 626.667 534 634C560.333 626.667 578.667 609.333 589 582" stroke="#6E4E38" stroke-width="4" stroke-linecap="round"/>
    <path d="M495 548C500.775 548 505.456 543.319 505.456 537.544C505.456 531.77 500.775 527.089 495 527.089C489.226 527.089 484.545 531.77 484.545 537.544C484.545 543.319 489.226 548 495 548Z" fill="#0E0C0A"/>
    <path d="M566 548C571.775 548 576.456 543.319 576.456 537.544C576.456 531.77 571.775 527.089 566 527.089C560.226 527.089 555.545 531.77 555.545 537.544C555.545 543.319 560.226 548 566 548Z" fill="#0E0C0A"/>
  </g>
  <g>
    <path d="M757 1128C790.137 1128 817 1101.14 817 1068V780H697V1068C697 1101.14 723.863 1128 757 1128Z" fill="#171310"/>
    <rect x="680" y="607" width="200" height="284" rx="100" fill="url(#barberShirt)"/>
    <path d="M685 738C719.667 748 754 748.667 788 740" stroke="#B08D65" stroke-width="3" stroke-linecap="round" opacity="0.55"/>
    <rect x="732" y="521" width="112" height="124" rx="56" fill="#75543D"/>
    <path d="M734 564C774.929 564 808.1 530.829 808.1 489.9V451H659.9V489.9C659.9 530.829 693.071 564 734 564Z" fill="#89664A"/>
    <path d="M662 444C671.333 381.333 706.667 351.667 768 355C822.667 361 852.333 392 857 448V535H816V474C816 449.147 795.853 429 771 429H747C718.833 429 696 406.167 696 378V359H690C665.147 359 645 379.147 645 404V444H662Z" fill="#251D17"/>
    <path d="M755 648L844 702L780 790L706 735L755 648Z" fill="#1C1713"/>
    <rect x="806" y="663" width="110" height="36" rx="18" transform="rotate(32.8598 806 663)" fill="#A17E58"/>
    <rect x="893" y="720" width="42" height="30" rx="10" transform="rotate(32.8598 893 720)" fill="#D5B78F"/>
    <path d="M852 686L903 614" stroke="#D5B78F" stroke-width="6" stroke-linecap="round"/>
    <path d="M885 712L936 640" stroke="#D5B78F" stroke-width="6" stroke-linecap="round"/>
  </g>
  <g opacity="0.55">
    <path d="M288 256L288 420" stroke="#A88661" stroke-width="2"/>
    <path d="M344 256L344 420" stroke="#A88661" stroke-width="2"/>
    <path d="M910 256L910 420" stroke="#A88661" stroke-width="2"/>
    <path d="M854 256L854 420" stroke="#A88661" stroke-width="2"/>
  </g>
  <defs>
    <linearGradient id="bg" x1="600" y1="76" x2="600" y2="1424" gradientUnits="userSpaceOnUse">
      <stop stop-color="#1B1511"/>
      <stop offset="0.42" stop-color="#0D0B0A"/>
      <stop offset="1" stop-color="#070707"/>
    </linearGradient>
    <linearGradient id="frame" x1="112" y1="112" x2="1088" y2="1388" gradientUnits="userSpaceOnUse">
      <stop stop-color="#D8B58B"/>
      <stop offset="1" stop-color="#5B4430"/>
    </linearGradient>
    <radialGradient id="mirrorGlow" cx="0" cy="0" r="1" gradientUnits="userSpaceOnUse" gradientTransform="translate(600 260) rotate(90) scale(280 520)">
      <stop stop-color="#534335"/>
      <stop offset="0.65" stop-color="#171210"/>
      <stop offset="1" stop-color="#0C0A09"/>
    </radialGradient>
    <linearGradient id="floor" x1="600" y1="488" x2="600" y2="1276" gradientUnits="userSpaceOnUse">
      <stop stop-color="#120F0D"/>
      <stop offset="1" stop-color="#19120E"/>
    </linearGradient>
    <linearGradient id="chair" x1="595" y1="526" x2="595" y2="862" gradientUnits="userSpaceOnUse">
      <stop stop-color="#2C2520"/>
      <stop offset="1" stop-color="#12100F"/>
    </linearGradient>
    <linearGradient id="mirror" x1="603" y1="260" x2="603" y2="448" gradientUnits="userSpaceOnUse">
      <stop stop-color="#342922"/>
      <stop offset="1" stop-color="#120F0D"/>
    </linearGradient>
    <linearGradient id="clipperBody" x1="904" y1="330" x2="904" y2="470" gradientUnits="userSpaceOnUse">
      <stop stop-color="#C7A170"/>
      <stop offset="1" stop-color="#7C5A3D"/>
    </linearGradient>
    <linearGradient id="cord" x1="938" y1="360" x2="1020" y2="426" gradientUnits="userSpaceOnUse">
      <stop stop-color="#6B4E36"/>
      <stop offset="1" stop-color="#151110"/>
    </linearGradient>
    <linearGradient id="apron" x1="520" y1="875.1" x2="520" y2="1236" gradientUnits="userSpaceOnUse">
      <stop stop-color="#221B17"/>
      <stop offset="1" stop-color="#110F0E"/>
    </linearGradient>
    <linearGradient id="coat" x1="560" y1="666" x2="560" y2="914" gradientUnits="userSpaceOnUse">
      <stop stop-color="#2A221D"/>
      <stop offset="1" stop-color="#151211"/>
    </linearGradient>
    <linearGradient id="barberShirt" x1="780" y1="607" x2="780" y2="891" gradientUnits="userSpaceOnUse">
      <stop stop-color="#2A211C"/>
      <stop offset="1" stop-color="#120F0E"/>
    </linearGradient>
  </defs>
</svg>
